<svg width="80" height="79" viewBox="0 0 80 79" fill="none" xmlns="http://www.w3.org/2000/svg">
<path d="M9.5 51.5001V51.5001C4.34077 51.5001 0.241189 55.8415 0.527371 60.9928V60.9928C0.792329 65.7621 4.73728 69.5001 9.51388 69.5001H47.5" stroke="#FFAC30"/>
<path d="M0.5 60.5001L0.5 14.0001C0.5 9.02956 4.52944 5.00012 9.5 5.00012V5.00012V52.0001" stroke="#FFAC30"/>
<line x1="9" y1="17.5001" x2="46" y2="17.5001" stroke="#FFAC30"/>
<line x1="61" y1="17.5001" x2="72" y2="17.5001" stroke="#FFAC30"/>
<line x1="71.5" y1="46" x2="71.5" y2="18" stroke="#FFAC30"/>
<path d="M36.1698 42.1726L67.3366 11.0058C69.3642 8.97824 69.3642 5.69095 67.3366 3.66341V3.66341C65.3091 1.63587 62.0218 1.63587 59.9943 3.66341L28.8274 34.8302" stroke="#FFAC30"/>
<path d="M28.696 35.4031L35.5881 42.2952L25.4514 45.5398L28.696 35.4031Z" fill="#FFAC30" stroke="#FFAC30"/>
<path d="M67.216 3.67122C69.2436 5.69876 69.2436 8.98605 67.216 11.0136L64.3424 13.8872L57 6.54487L59.8736 3.67122C61.9012 1.64368 65.1885 1.64368 67.216 3.67122Z" fill="#FFAC30"/>
<line x1="55.3536" y1="8.64657" x2="62.3536" y2="15.6466" stroke="#FFAC30"/>
<line x1="29.3536" y1="34.6466" x2="36.3536" y2="41.6466" stroke="#FFAC30"/>
<line x1="20.5" y1="46.5001" x2="52.5" y2="46.5001" stroke="#FFAC30" stroke-linecap="round"/>
<path d="M56 61.0001L79 38.0001V78.0001H39L52 65.0001" stroke="#FFAC30" stroke-linecap="round"/>
<path d="M59.2071 69.5001L69.5 59.2072V69.5001H59.2071Z" stroke="#FFAC30"/>
<line x1="74.5" y1="51.5001" x2="78.5" y2="51.5001" stroke="#FFAC30" stroke-linecap="round"/>
<line x1="74.5" y1="58.5001" x2="78.5" y2="58.5001" stroke="#FFAC30" stroke-linecap="round"/>
<line x1="74.5" y1="63.5001" x2="78.5" y2="63.5001" stroke="#FFAC30" stroke-linecap="round"/>
<line x1="74.5" y1="69.5001" x2="78.5" y2="69.5001" stroke="#FFAC30" stroke-linecap="round"/>
</svg>
