<svg width="77" height="86" viewBox="0 0 77 86" fill="none" xmlns="http://www.w3.org/2000/svg">
<path d="M8 31.4999V77.9999C8 81.3136 10.6863 83.9999 14 83.9999H55.5" stroke="#FFAC30" stroke-linecap="round"/>
<path d="M1 36.6012L38 8.6012L75.8018 36.6012" stroke="#FFAC30" stroke-linecap="round" stroke-linejoin="round"/>
<circle cx="37.5" cy="51.4999" r="17" stroke="#FFAC30"/>
<path fill-rule="evenodd" clip-rule="evenodd" d="M37.5 62.9999C43.8513 62.9999 49 57.8512 49 51.4999C49 45.1486 43.8513 39.9999 37.5 39.9999C31.1487 39.9999 26 45.1486 26 51.4999C26 57.8512 31.1487 62.9999 37.5 62.9999ZM43.8433 47.8634C44.0441 47.6738 44.0531 47.3573 43.8635 47.1566C43.6739 46.9558 43.3574 46.9468 43.1567 47.1364L35.0294 54.8121L31.8433 51.803C31.6426 51.6134 31.3261 51.6225 31.1365 51.8232C30.9469 52.024 30.9559 52.3404 31.1567 52.5301L35.0294 56.1876L43.8433 47.8634Z" fill="#FFAC30"/>
<path d="M52.3643 60.707L68.2399 76.5826C69.802 78.1447 69.802 80.6774 68.2399 82.2395C66.6778 83.8016 64.1451 83.8016 62.583 82.2395L46.7074 66.3638L52.3643 60.707Z" stroke="#FFAC30"/>
<line x1="67.5" y1="30.5" x2="67.5" y2="68.5" stroke="#FFAC30" stroke-linecap="round"/>
</svg>
