<svg width="20.856934" height="20.856934" viewBox="0 0 20.8569 20.8569" fill="none" xmlns="http://www.w3.org/2000/svg" xmlns:xlink="http://www.w3.org/1999/xlink">
	<desc>
			Created with Pixso.
	</desc>
	<defs/>
	<path d="M19.8169 15.6118C19.7231 15.3306 19.0669 15.0356 18.7993 14.9019C18.0356 14.4731 17.2588 14.0581 16.5088 13.6162C16.1606 13.4019 15.7319 13 15.3169 13C14.5 13 13.3081 15.4243 12.585 15.4243C12.2231 15.4243 11.7544 15.0894 11.4331 14.9019C8.99561 13.5493 7.30811 11.8618 5.95557 9.42432C5.76807 9.10254 5.43311 8.63379 5.43311 8.27246C5.43311 7.54932 7.85693 6.35693 7.85693 5.54004C7.85693 5.125 7.45557 4.69629 7.24121 4.34814C6.79932 3.59814 6.38379 2.82129 5.95557 2.05811C5.82129 1.79004 5.52686 1.13379 5.24561 1.04004C5.15186 1 5.05811 1 4.96436 1C4.48193 1 3.54443 1.21436 3.10254 1.41504C2.44629 1.69629 2.01807 2.44629 1.68311 3.04932C1.25439 3.83936 1 4.64307 1 5.54004C1 6.78564 1.50879 7.91064 1.92432 9.04932C2.21875 9.86621 2.58057 10.6562 3.03564 11.3931C4.44189 13.6694 7.1875 16.415 9.46436 17.8213C10.2007 18.2769 10.9912 18.6382 11.8081 18.9331C12.9463 19.3481 14.0713 19.8569 15.3169 19.8569C16.2144 19.8569 17.0181 19.6025 17.8081 19.1743C18.4106 18.8394 19.1606 18.4106 19.4419 17.7544C19.6431 17.3125 19.8569 16.375 19.8569 15.8931C19.8569 15.7993 19.8569 15.7056 19.8169 15.6118ZM5.60449 0.106445Q5.91016 0.220703 6.1665 0.496094Q6.31641 0.656738 6.46191 0.88623Q6.60742 1.11621 6.80859 1.52734Q6.82812 1.56738 6.83984 1.59082Q6.98389 1.84766 7.25635 2.34082Q7.81494 3.35254 8.09277 3.82422Q8.12939 3.8833 8.24316 4.04443Q8.48975 4.39209 8.60205 4.60352Q8.85693 5.08447 8.85693 5.54004Q8.85693 5.56299 8.85645 5.58594Q8.84375 5.9917 8.60254 6.39014Q8.44531 6.6499 8.1748 6.92871Q7.98291 7.12598 7.7002 7.36719Q7.54199 7.50195 7.21875 7.76367Q6.6792 8.2002 6.50244 8.37891Q6.50146 8.37988 6.50049 8.38086Q6.56396 8.50195 6.69824 8.72021Q6.78076 8.85449 6.82959 8.93896Q7.77637 10.6445 8.99463 11.8628Q10.2129 13.0811 11.937 14.0381Q12.0029 14.0767 12.1367 14.1587Q12.3555 14.293 12.4761 14.3569Q12.4775 14.3555 12.4785 14.3545Q12.6572 14.1777 13.0933 13.6387Q13.355 13.3149 13.4897 13.1572Q13.731 12.8745 13.9282 12.6826Q14.207 12.4116 14.4668 12.2544Q14.8657 12.0137 15.2715 12.0005Q15.2939 12 15.3169 12Q15.7725 12 16.2534 12.2549Q16.4653 12.3672 16.813 12.6138Q16.9736 12.728 17.0166 12.7544Q17.5044 13.042 18.5161 13.6011Q19.0093 13.873 19.2661 14.0171Q19.29 14.0288 19.3301 14.0483Q19.7412 14.2495 19.9707 14.395Q20.2002 14.5405 20.3613 14.6904Q20.6362 14.9473 20.7505 15.2529Q20.8242 15.438 20.8462 15.6455Q20.8569 15.7456 20.8569 15.8931Q20.8569 16.3618 20.7007 17.0581Q20.5474 17.7393 20.3613 18.1484Q20.0728 18.8213 19.3584 19.375Q19.1152 19.5635 18.7998 19.7563Q18.6094 19.873 18.2847 20.0532Q17.5703 20.4409 16.8765 20.6382Q16.3613 20.7847 15.8369 20.833Q15.5781 20.8569 15.3169 20.8569Q14.4766 20.8569 13.519 20.5918Q13.1558 20.4912 12.7183 20.3369Q12.4644 20.2476 11.9707 20.061Q11.6323 19.9331 11.4688 19.8735Q10.061 19.3662 8.93896 18.6724Q8.0415 18.1177 7.06348 17.3179Q6.12598 16.5503 5.21631 15.6406Q4.30713 14.7314 3.53955 13.7935Q2.73926 12.8159 2.18506 11.9185Q1.49121 10.7959 0.984863 9.3916Q0.923828 9.2251 0.795898 8.88623Q0.609375 8.39307 0.52002 8.13916Q0.365723 7.70117 0.265137 7.33789Q0 6.38086 0 5.54004Q0 5.27881 0.0239258 5.02002Q0.0722656 4.49609 0.21875 3.98096Q0.416504 3.28711 0.809082 2.56348Q0.984375 2.24805 1.10059 2.05762Q1.29395 1.7417 1.48193 1.49902Q2.03613 0.78418 2.68896 0.504883Q3.11816 0.30957 3.79883 0.156738Q4.49561 0 4.96436 0Q5.11133 0 5.21143 0.0107422Q5.41895 0.0332031 5.60449 0.106445Z" fill="#FFAC30" fill-opacity="1.000000" fill-rule="evenodd"/>
</svg>
